<svg xmlns="http://www.w3.org/2000/svg" width="49.887" height="15.157" viewBox="0 0 49.887 15.157">
  <g id="hide-button" transform="translate(-165.714 -392.623)">
    <path id="Home_Indicator" data-name="Home Indicator" d="M2.866.82,25.03-.039A2.419,2.419,0,0,1,27.7,2.377a2.92,2.92,0,0,1-2.87,2.631L2.667,5.867A2.419,2.419,0,0,1,0,3.45,2.92,2.92,0,0,1,2.866.82Z" transform="matrix(0.94, 0.342, -0.342, 0.94, 167.726, 392.7)"/>
    <path id="Home_Indicator-2" data-name="Home Indicator" d="M2.713.006,25.176.863a2.943,2.943,0,0,1,2.909,2.63A2.439,2.439,0,0,1,25.378,5.91L2.914,5.053A2.943,2.943,0,0,1,.005,2.423,2.439,2.439,0,0,1,2.713.006Z" transform="translate(187.186 402.225) rotate(-20)"/>
  </g>
</svg>
