<svg xmlns="http://www.w3.org/2000/svg" width="60" height="60" viewBox="0 0 60 60">
  <g transform="translate(-50 -113)">
    <g transform="translate(50 113)" fill="none" stroke-width="1">
      <circle cx="30" cy="30" r="30" />
      <circle cx="30" cy="30" r="29.5" stroke="#000" />
    </g>
    <g data-name="Subtraction 1" transform="translate(50 155)" fill="none">
      <path d="M 7.796160221099854 7.425510406494141 C 3.083924055099487 2.043416976928711 0.5000006556510925 -4.818328380584717 0.5000006556510925 -11.99970722198486 C 0.5000006556510925 -15.98251724243164 1.279910683631897 -19.84590721130371 2.818070650100708 -23.48257637023926 C 4.303860664367676 -26.99542617797852 6.430990695953369 -30.15038681030273 9.14037036895752 -32.85982513427734 C 11.84975051879883 -35.56925582885742 15.00463104248047 -37.69641494750977 18.51736068725586 -39.18221664428711 C 22.15388107299805 -40.72038650512695 26.0171012878418 -41.50029754638672 29.99970054626465 -41.50029754638672 C 33.98252105712891 -41.50029754638672 37.84590911865234 -40.72037506103516 41.48255920410156 -39.18221664428711 C 44.99542999267578 -37.69640731811523 48.1504020690918 -35.56924819946289 50.85982894897461 -32.85982513427734 C 53.56925964355469 -30.15037727355957 55.6964225769043 -26.99541664123535 57.18222045898438 -23.48257637023926 C 58.72037887573242 -19.84590721130371 59.50030136108398 -15.98251724243164 59.50030136108398 -11.99970722198486 C 59.50030136108398 -4.817042827606201 56.91590118408203 2.044443368911743 52.20312118530273 7.424457550048828 C 51.39587783813477 5.319284439086914 48.97164154052734 3.411827802658081 45.24275970458984 1.978563189506531 C 41.08443069458008 0.3802431523799896 35.6710090637207 -0.4999968409538269 29.99970054626465 -0.4999968409538269 C 24.32764053344727 -0.4999968409538269 18.91378974914551 0.3802631497383118 14.7554407119751 1.978643178939819 C 11.02589893341064 3.412186861038208 8.602018356323242 5.3199782371521 7.796160221099854 7.425510406494141 Z M 30.49920082092285 -31.50050735473633 C 27.01973152160645 -31.50050735473633 23.75061988830566 -30.03929710388184 21.29408073425293 -27.38603591918945 C 18.84743118286133 -24.74347686767578 17.5 -21.23272705078125 17.5 -17.50049591064453 C 17.5 -13.76794719696045 18.84743118286133 -10.25706672668457 21.29409027099609 -7.614616870880127 C 23.75053977966309 -4.961586952209473 27.01963996887207 -3.500496864318848 30.49920082092285 -3.500496864318848 C 33.97914123535156 -3.500496864318848 37.24851989746094 -4.961586952209473 39.70510101318359 -7.614606857299805 C 42.15183258056641 -10.25701713562012 43.49930191040039 -13.76788711547852 43.49930191040039 -17.50049591064453 C 43.49930191040039 -21.2327766418457 42.15183258056641 -24.7435359954834 39.70510101318359 -27.38604736328125 C 37.24843978881836 -30.03929710388184 33.97906112670898 -31.50050735473633 30.49920082092285 -31.50050735473633 Z" stroke="#000"/>
      <path d="M 7.67173433303833 6.508829593658447 C 8.087862014770508 5.760765075683594 8.695259094238281 5.043811321258545 9.489740371704102 4.364723205566406 C 10.75616073608398 3.282243251800537 12.46744060516357 2.322423219680786 14.57605075836182 1.511933207511902 C 18.79025077819824 -0.107906848192215 24.2678108215332 -0.9999968409538269 29.99970054626465 -0.9999968409538269 C 35.73083877563477 -0.9999968409538269 41.20796966552734 -0.1079368516802788 45.42214202880859 1.511853098869324 C 47.53071975708008 2.322323083877563 49.24213027954102 3.28212308883667 50.50885009765625 4.364583015441895 C 51.30345153808594 5.043603420257568 51.91095733642578 5.760315895080566 52.3273811340332 6.508317470550537 C 56.64219284057617 1.311980247497559 59.00030136108398 -5.19752025604248 59.00030136108398 -11.99970722198486 C 59.00030136108398 -15.9152364730835 58.23366928100586 -19.71309661865234 56.72171020507812 -23.28779602050781 C 55.26113128662109 -26.74103736877441 53.16995239257812 -29.84257698059082 50.50627136230469 -32.50626754760742 C 47.84260940551758 -35.16993713378906 44.74106216430664 -37.26111602783203 41.28779220581055 -38.72170639038086 C 37.71310043334961 -40.23366546630859 33.91524124145508 -41.00029754638672 29.99970054626465 -41.00029754638672 C 26.08438110351562 -41.00029754638672 22.28670120239258 -40.23366546630859 18.7121410369873 -38.72171783447266 C 15.25901031494141 -37.26112747192383 12.15755081176758 -35.16994857788086 9.49392032623291 -32.50627517700195 C 6.830300807952881 -29.84259605407715 4.739150524139404 -26.74104690551758 3.278580665588379 -23.28779602050781 C 1.766620635986328 -19.71309661865234 1.000000715255737 -15.9152364730835 1.000000715255737 -11.99970722198486 C 1.000000715255737 -5.199170589447021 3.357479810714722 1.310269951820374 7.67173433303833 6.508829593658447 M 30.49920082092285 -32.00050735473633 C 34.11993026733398 -32.00050735473633 37.51961898803711 -30.48236656188965 40.07199096679688 -27.72574615478516 C 42.60454940795898 -24.99052619934082 43.99930191040039 -21.35912704467773 43.99930191040039 -17.50049591064453 C 43.99930191040039 -13.64153671264648 42.60454940795898 -10.01001644134521 40.07197189331055 -7.274896621704102 C 37.51969146728516 -4.51850700378418 34.12001037597656 -3.000496864318848 30.49920082092285 -3.000496864318848 C 26.87877082824707 -3.000496864318848 23.47936058044434 -4.518517017364502 20.92720031738281 -7.274916648864746 C 18.39471054077148 -10.01007652282715 17 -13.64159679412842 17 -17.50049591064453 C 17 -21.35906600952148 18.39470100402832 -24.99045753479004 20.92718124389648 -27.72572708129883 C 23.47944068908691 -30.48235702514648 26.87885093688965 -32.00050735473633 30.49920082092285 -32.00050735473633 M 8.040740966796875 8.442442893981934 L 8.03933048248291 8.440922737121582 C 2.855090618133545 2.871613264083862 6.805419729971618e-07 -4.38767671585083 6.805419729971618e-07 -11.99970722198486 C 6.805419729971618e-07 -16.0497875213623 0.793200671672821 -19.97871589660645 2.357570648193359 -23.67734718322754 C 3.868560791015625 -27.24978637695312 6.031670570373535 -30.45817756652832 8.786810874938965 -33.21337509155273 C 11.54194068908691 -35.96855545043945 14.75024032592773 -38.13170623779297 18.32258033752441 -39.64271545410156 C 22.02108001708984 -41.20709609985352 25.94983100891113 -42.00029754638672 29.99970054626465 -42.00029754638672 C 34.04978179931641 -42.00029754638672 37.97871017456055 -41.20709609985352 41.67734146118164 -39.64271545410156 C 45.24980163574219 -38.13170623779297 48.45819091796875 -35.96856689453125 51.21337890625 -33.21337509155273 C 53.96855926513672 -30.45818710327148 56.13171005249023 -27.24980735778809 57.64271926879883 -23.67734718322754 C 59.20709991455078 -19.97870635986328 60.00030136108398 -16.04977607727051 60.00030136108398 -11.99970722198486 C 60.00030136108398 -4.386276721954346 57.14453887939453 2.872843265533447 51.95909118652344 8.44045352935791 C 51.24716949462891 3.707253217697144 41.60221099853516 3.150634711346356e-06 29.99970054626465 3.150634711346356e-06 C 18.39568138122559 3.150634711346356e-06 8.750290870666504 3.707463264465332 8.041050910949707 8.440393447875977 L 8.040740966796875 8.442442893981934 Z M 30.49920082092285 -31.00050735473633 C 27.16061019897461 -31.00050735473633 24.02180099487305 -29.59622764587402 21.66097068786621 -27.04634666442871 C 19.30016136169434 -24.49649620056152 18 -21.10637664794922 18 -17.50049591064453 C 18 -13.894287109375 19.30016136169434 -10.50405693054199 21.66097068786621 -7.95431661605835 C 24.0217113494873 -5.404656887054443 27.16052055358887 -4.000496864318848 30.49920082092285 -4.000496864318848 C 33.83827209472656 -4.000496864318848 36.97735977172852 -5.404656887054443 39.33822250366211 -7.95431661605835 C 41.69910049438477 -10.50400638580322 42.99930191040039 -13.89423656463623 42.99930191040039 -17.50049591064453 C 42.99930191040039 -21.10642623901367 41.69910049438477 -24.49654769897461 39.33822250366211 -27.04634666442871 C 36.97727203369141 -29.59622764587402 33.83818054199219 -31.00050735473633 30.49920082092285 -31.00050735473633 Z" />
    </g>
  </g>
</svg>
